<?xml version="1.0" standalone="no"?>
<!DOCTYPE svg PUBLIC "-//W3C//DTD SVG 20010904//EN"
 "http://www.w3.org/TR/2001/REC-SVG-20010904/DTD/svg10.dtd">
<svg version="1.0" xmlns="http://www.w3.org/2000/svg"
 width="245.000000pt" height="245.000000pt" viewBox="0 0 245.000000 245.000000"
 preserveAspectRatio="xMidYMid meet">
<metadata>
Created by potrace 1.14, written by Peter Selinger 2001-2017
</metadata>
<g transform="translate(0.000000,245.000000) scale(0.100000,-0.100000)"
fill="#000000" stroke="none">
<path d="M1325 2436 c-269 -61 -499 -304 -579 -612 -27 -103 -35 -193 -37
-399 -3 -297 -27 -470 -96 -670 -30 -86 -117 -275 -156 -340 -7 -11 -25 -42
-42 -70 -16 -27 -32 -52 -35 -55 -4 -4 -62 -89 -122 -179 -24 -35 -23 -62 3
-90 21 -22 26 -23 128 -17 127 8 232 19 301 31 8 1 35 6 60 10 93 14 320 75
416 110 546 205 893 592 1015 1135 24 107 34 341 18 425 -5 28 -11 61 -14 75
-15 86 -87 251 -148 339 -46 68 -153 171 -227 218 -135 86 -336 123 -485 89z
m174 -445 c63 -45 104 -170 90 -277 -9 -68 -34 -118 -76 -150 -49 -37 -144
-40 -196 -4 -88 61 -112 226 -51 356 47 99 152 132 233 75z m415 15 c70 -29
116 -127 116 -246 0 -111 -34 -180 -105 -211 -68 -30 -148 -15 -197 37 -39 43
-56 107 -53 195 6 173 116 276 239 225z"/>
<path d="M1395 1858 c-31 -28 -40 -80 -19 -124 31 -64 107 -65 137 -1 9 18 14
41 12 52 -2 11 -4 26 -4 33 -2 23 -49 62 -75 62 -14 0 -37 -10 -51 -22z"/>
<path d="M1771 1861 c-18 -14 -25 -31 -29 -69 -4 -47 -2 -54 26 -81 36 -37 75
-34 111 6 19 22 22 34 19 75 -8 79 -70 113 -127 69z"/>
</g>
</svg>
