<svg width="227" height="225" viewBox="0 0 227 225" fill="none" xmlns="http://www.w3.org/2000/svg"><g clip-path="url(#a)"><path d="M110 52c-4 0-7.4 4-7.4 9s3.3 9 7.4 9c4.2 0 7.5-4 7.5-9s-3.3-9-7.5-9Z" fill="#fff"/><path d="M111.5 0C73.7 0 43.1 36.5 43.1 81.5c0 42.5.1 76.3-41.9 132.5a6.3 6.3 0 0 0 5.3 10C151.7 218.7 180 125.2 180 81.5c0-45-30.6-81.5-68.5-81.5Zm-4.4 83.9c-9.1 0-16.5-6.4-16.5-20.9 0-14.5 7.4-23.8 16.5-23.8 9 0 16.5 9.3 16.5 23.8 0 14.6-7.4 20.9-16.5 20.9Zm40.2 0c-9 0-16.4-6.4-16.4-20.9 0-14.5 7.3-23.8 16.4-23.8 9.2 0 16.5 9.3 16.5 23.8 0 14.6-7.3 20.9-16.5 20.9Z" fill="#ED408D"/><path d="M144.4 52c-4.2 0-7.5 4-7.5 9s3.3 9 7.5 9c4.1 0 7.5-4 7.5-9s-3.4-9-7.5-9Z" fill="#fff"/></g><path d="m34.7 164.6 168.7-89.9m9.3 67A97.5 97.5 0 1 1 24.3 91.3a97.5 97.5 0 0 1 188.4 50.4Z" stroke="#C50000" stroke-width="20"/><defs><clipPath id="a"><path fill="#fff" d="M0 0h180v224H0z"/></clipPath></defs></svg>